<svg width="16" height="12" viewBox="0 0 16 12" fill="none" xmlns="http://www.w3.org/2000/svg">
<path d="M8.13908 6.422L8.13906 6.42197L8.13475 6.4249C8.107 6.4438 8.06673 6.4573 8.0235 6.4573H8.02008C7.95676 6.4573 7.91613 6.43582 7.90291 6.42453L7.90222 6.42395L1.09785 0.644507H14.9378L8.44934 6.16223L8.44896 6.16256L8.16401 6.4055L8.16313 6.40609L8.13908 6.422ZM10.0347 6.74868L15.0133 10.8709H0.981836L5.97125 6.71805L6.96365 7.5615L6.96474 7.56242C7.25768 7.80959 7.63425 7.94002 8.02235 7.94002C8.41016 7.94002 8.78693 7.80848 9.07999 7.56071L9.08089 7.55994L10.0347 6.74868ZM4.83079 5.74919L0.4 9.43766V1.98568L4.83079 5.74919ZM15.6 2.0168V9.44285L11.1757 5.77901L15.6 2.0168Z" stroke="white" stroke-width="0.8"/>
</svg>
