<svg width="17" height="17" viewBox="0 0 17 17" fill="none" xmlns="http://www.w3.org/2000/svg">
<path d="M13.1487 15.422L13.1586 15.4121L15.4115 13.1709C15.4117 13.1707 15.4119 13.1705 15.4121 13.1703C15.4935 13.0885 15.5172 13.0183 15.509 12.9271C15.4934 12.8672 15.451 12.7937 15.3192 12.7109L12.1709 10.8468H12.1521L12.0331 10.7753C12.0257 10.7708 11.9737 10.7449 11.8333 10.7449C11.6903 10.7449 11.5743 10.787 11.4651 10.8804L10.5124 11.8521L10.5093 11.8552C10.4066 11.9582 10.2845 12.0088 10.2038 12.0358L10.2035 12.0359C10.1527 12.0528 10.047 12.0871 9.93496 12.0871H9.88529L9.83659 12.0773L9.62513 12.0349L9.62478 12.0348L9.72315 11.5446L13.1487 15.422ZM13.1487 15.422L13.1392 15.4325M13.1487 15.422L13.1392 15.4325M13.1392 15.4325C13.0884 15.4891 13.0117 15.549 12.8954 15.6052L12.8951 15.6053M13.1392 15.4325L12.8951 15.6053M12.8951 15.6053C12.7791 15.6615 12.6738 15.6946 12.5783 15.7104C12.5455 15.7126 12.5103 15.7161 12.4834 15.7188L12.4785 15.7193C12.4451 15.7227 12.3899 15.7254 12.308 15.7254C12.1345 15.7254 11.8197 15.6941 11.3413 15.6207C10.9165 15.5555 10.3704 15.3903 9.69478 15.1095L9.69477 15.1095M12.8951 15.6053L9.69477 15.1095M9.69477 15.1095C9.03729 14.8363 8.27733 14.4201 7.41251 13.8533L7.4125 13.8533M9.69477 15.1095L7.4125 13.8533M7.4125 13.8533C6.56889 13.3005 5.65825 12.5327 4.68085 11.5418L4.68088 11.5418M7.4125 13.8533L4.68088 11.5418M4.68088 11.5418L4.67631 11.5373M4.68088 11.5418L4.67631 11.5373M4.67631 11.5373C3.89986 10.7701 3.26335 10.0429 2.76293 9.35594C2.25376 8.65691 1.84996 8.01838 1.54777 7.43959L1.54776 7.43957M4.67631 11.5373L1.54776 7.43957M1.54776 7.43957C1.2406 6.85133 1.01597 6.32876 0.868719 5.87014C0.715312 5.39235 0.615655 4.99381 0.564468 4.67056C0.509979 4.32646 0.493666 4.08687 0.502059 3.93544C0.510107 3.79023 0.516096 3.67813 0.518551 3.61435C0.534692 3.51944 0.567662 3.4152 0.622795 3.30072C0.679193 3.18361 0.739062 3.10656 0.795376 3.05575L0.80514 3.04695M1.54776 7.43957L0.80514 3.04695M0.80514 3.04695L0.814428 3.03764M0.80514 3.04695L0.814428 3.03764M0.814428 3.03764L3.06866 0.777998C3.14349 0.702993 3.20057 0.687012 3.25706 0.687012C3.30011 0.687012 3.32363 0.696949 3.34643 0.71409C3.40497 0.758099 3.4572 0.812824 3.50312 0.881685L5.30603 4.31037L5.30587 4.31046M0.814428 3.03764L5.30587 4.31046M5.30587 4.31046L5.31254 4.32235M5.30587 4.31046L5.31254 4.32235M5.31254 4.32235C5.35136 4.39153 5.3659 4.46528 5.344 4.56954C5.31752 4.69564 5.26569 4.7882 5.19121 4.86285L4.36071 5.69535C4.25815 5.79816 4.2078 5.92025 4.18091 6.00114C4.15567 6.07703 4.12994 6.17691 4.12994 6.28633V6.33342M5.31254 4.32235L4.12994 6.33342M4.12994 6.33342L4.13873 6.37967M4.12994 6.33342L4.13873 6.37967M4.13873 6.37967C4.19568 6.67941 4.31826 6.99727 4.48925 7.32834M4.13873 6.37967L4.48925 7.32834M4.48925 7.32834C4.64189 7.63364 4.86765 7.9885 5.15693 8.38867C5.46127 8.80967 5.88251 9.28051 6.41152 9.79954L4.48925 7.32834Z" stroke="white"/>
</svg>
